<svg xmlns="http://www.w3.org/2000/svg" viewBox="0 0 177 255" width="177" height="255"><style>.a{fill:#c7a16c}</style><g style="opacity:.7"><path class="a" d="m111.8 0.7q0 0 0 0.1 0.1 0 0.1 0z"></path><path class="a" d="m55 217.7c-0.1-0.7 0.3-1.6-0.9-1.8-1.4-0.1-1.3-0.9-1-2 0.6-1.8 1.2-3.5 0.7-5.4-0.3-1.3-0.9-1.7-1.9-0.5-0.9 0.4-1.1 1.4-1.5 2.2-0.9 1.8-1.5 3.8-3 5.3-0.3 0.2-0.6 0.7-1 0.3-0.3-0.2-0.2-0.6-0.1-1 0.5-1.4 1.2-2.8 1.7-4.2 0.5-1 1-2.2-0.1-3.3-1.8-0.5-2.6 0.4-3.2 2-0.4 1.3-0.8 2.8-2.2 3.6-0.3-1.5 0.3-2.9 0.1-4.3-0.1-0.7-0.3-1.1-1.1-0.6-0.6 0.2-0.6 0.8-0.8 1.3-0.8 2.1-1.5 4.2-2.8 6-0.5-0.9-0.2-2.1-0.3-3.2 0-0.8 0.1-1.8-1.1-2-1.1 0.4-1.8 1.2-2.3 2.3-0.3 0.9-1 1.5-2 2 0.3-2.4 1-4.5 0.8-6.7-0.1-0.7 0.1-1.6-0.7-1.6-0.6-0.1-0.5 0.8-0.7 1.3-1.1 2.5-1.1 5.4-3 7.5-0.6-0.8-0.1-2.2-1.6-2.4-1.3 0.7-1.1 2.1-1.7 3.2q-0.4 0.5-0.7 1c-1 0.5-1.2 0.3-1.1-0.8 0.2-2.1 0.7-4.1 0.7-6.3-0.1-0.8-0.6-0.6-1.1-0.4-1.2 0.5-1.6 1.6-1.9 2.6-0.9 2.4-2.5 4.3-4 6.2-0.3 0.4-0.6 0.8-1.2 0.6-0.5-0.2-0.5-0.8-0.5-1.2 0-0.6 0.2-1.2 0.2-1.7 0.1-1.1 0.2-2.2-0.6-3.2-1.2 1.3-1.7 2.9-2.6 4.2-1.3 0.4-0.6-1.1-1.2-1.4q-0.1-0.7-0.3-1.4c-0.2-0.8-0.6-1.6-1.5-1.5-0.9 0.2-1.2 0.9-1.1 1.9 0.1 1.1 0.1 2.3-0.2 3.4-0.3 1.3-1.1 1.7-2.3 1.6-1.6-0.2-2.4-1.3-3.1-2.5-1.4-0.3-1 0.7-0.8 1.3 0.7 1.8 2.1 2.9 3.8 3.7 0.6 0 1.1 0.2 1.6 0.1q0.3 0 0.6 0c0.8-0.1 1.6-0.3 2.3-0.9 0.3-0.3 0.7-0.7 1.3-0.4 0.7 0.2 1.4 0.3 1.9-0.3 0.7-0.9 1.3-0.7 2.1-0.3 1.2 0.7 2.4 0.8 3.6 0.2 0.5-0.1 0.9-0.3 1.1-0.8 0.6-0.9 1.1-0.7 1.6 0.1 0.1 0.2 0.3 0.3 0.5 0.4 2.2 1.5 2.4 1.5 4.2-0.5 0.3-0.3 0.5-0.5 0.9-0.5 1.2-0.1 2.1-0.7 2.8-1.6 0.3-0.5 0.9-0.9 1.3-0.5 1.6 2 4.2-0.8 5.8 1.3 0.1 0.1 0.6 0 0.8-0.2 2.2-1.7 4.1 0.1 6 0.6 2 0.6 4.4 0.9 5.7-1 1-1.5 1.3-0.6 1.9 0q0.4 0.5 0.9 0.9c1.4 0.9 1.8 0.8 2.3-0.7z"></path><path fill-rule="evenodd" class="a" d="m177.1 220.9c-0.2 1.3-1 2-1.7 2.7-1.6 1.5-3.6 2.3-5.5 3.3-1.1 0.5-1.9 0.4-2.3-0.9-0.2-0.9-0.6-1.2-1.6-0.8-1.6 0.7-3.3 1.2-5.1 0.2-0.3-0.1-0.8-0.1-1.2 0.1-1.5 0.7-2.8 0.4-3.8-1-0.4-0.5-0.7-0.3-1.2 0-0.8 0.6-1.7 1.2-2.6 1.6-1.8 0.9-2.7 0.6-3.8-1.1-0.7-1.3-1.4-0.4-1.9 0.1-2.1 1.7-4.5 2.2-7.1 2.5-1 0.2-1.2-0.1-1-1 0.1-0.5 0.4-1.2-0.1-1.6-0.7-0.4-0.7 0.7-1.3 0.7-0.1 0.1-0.3 0.1-0.4 0.2-1.7 1.1-3.5 1.6-5.5 1.2q-0.3-0.3-0.2-0.6c-0.5-1.8 1.1-3.2 1.1-5 0-0.7-0.1-1.5-0.1-2.2-1.3 1.1-1.8 2.9-3.4 3.7 0.8 2.2 0.6 4.2-0.2 6.4-0.5 1.3-0.1 2.7-0.2 4.1-0.3 1.2 0.3 2.9-1.4 3.5-2.3 0.9-3.4 2.9-3.1 5 0.9 6-2.1 9.2-7.2 11.2-3.5 1.3-6.9 1.5-10.3-0.1-2.8-1.4-2.9-5.1-0.2-6.8 0.8-0.5 1.8-0.8 2.7-1 2.5-0.4 4.1-2.1 5.5-4 0.7-0.9 0.6-1.6-0.5-2.2-0.9-0.4-1.9-0.7-2.4-1.6-0.2-0.5-0.5-0.9-0.1-1.3 0.4-0.4 0.8-0.2 1.2 0.2 0.1 0.1 0.1 0.2 0.2 0.2 1 0.1 0.7 1.7 1.9 1.5 1.5-0.3 3-0.4 4.3-1.5 0.9-1 2.2-1.6 3.3-2.2-1.5-0.1-2.2 1.4-3.3 1.9-0.6-0.2-1.6 0.5-1.8-0.6-0.3-1.1-0.2-2.2 0.7-3 0.6-0.5 1.3-0.9 2-1.1 0.9-0.4 1.4-1 1.9-1.9 0.7-1.6 2.6-2.1 3.9-3.2 0.5-0.4 0.8-0.4 0.7-1.3 0-3.7 0.2-7.4 0.5-11 0.1-2.1 0.3-4.3-0.2-6.3-0.5-1.9 0.1-3.7-0.1-5.6-1.1-0.2-1.8 0.7-2.7 1.1-1.2 1-2.7 0.5-4.1 0.7-0.8 0.1-0.5-0.6-0.4-1 0.4-1.8 1.2-3.5 2.1-5.2 0.9-1.7 2.2-3.3 2.1-5.4 0-0.3 0.4-0.2 0.6-0.3 0.9 0.4 1.1 1.4 1.9 2.2 0.2-1.6 1.2-2.8 0.6-4.3q1.1-3.7 2.2-7.5c0.6-1.9 1-3.9 0.7-6-0.2-1.1-0.4-1.9-1.6-2.4-1.2-0.5-1.5-3.1-0.7-4.8 0.7-1.5 1.4-3 1.9-4.5 0.3-0.9 0.4-1.8 0.3-2.6-0.7-5.4 0.6-10.6 1.2-15.8q0.1-1.3 0.2-2.6c0.3-0.6 0.1-1.1 0-1.7q0.1-0.4 0.1-0.8c-0.1 0.4-0.1 0.9-0.4 1.3-0.1 0.4-0.1 0.9-0.7 0.8-0.5 0-0.5-0.4-0.5-0.8 0.1-0.8-0.1-1.8 0.2-2.6 0.7-2.1-0.2-3.8-1.4-5.4-0.2-0.3-0.3-0.4-0.6-0.2q-0.5 0.2-1 0.4c-0.6 0.2-1.5 0.3-1.9-0.1-0.5-0.5 0.1-1.3 0.5-1.7 2.6-2.4 2.4-5.6 2.3-8.7 0-2.2 0-4.4 0-6.7 1.1 0.7 0.7 2 1.4 2.8 0.9-1.2 1-2.5 1.2-3.8 0.6-4.3 0-8.5-0.7-12.7 0-0.2-0.1-0.6-0.2-0.6-1.9-0.2-1.8-2-2.6-3.1-0.4-0.7-0.9-1.5-1.6-2q0-0.1-0.1-0.2c-0.9-0.1-1.6-0.4-2.4-0.7q-0.4 0-0.8 0.2c-3.2 0.2-6.3 1-9.6 0.8-0.9-0.1-1.4 0.4-1.4 1.3 0.4 5-1.2 9.7-2.2 14.5-0.3 1.5-0.2 3-0.1 4.5-0.1 0.2-0.1 0.5-0.2 0.6q0.3 0.1 0.5 0.4c0.3 0.3 0.6 0.6 1.1 0.3 0.4-0.2 0.3-0.7 0.2-1.1-0.4-1-0.4-1.8 0.9-2.1 0.4-0.1 0.4-0.7 0.7-1 0.7-1 0.4-2.7 2.1-3.1 0.2 0 0.1 0.1 0.1-0.1-0.1-3 2.8-4.8 3-7.7 0-0.4-0.1-0.7-0.2-1-0.4-1.1-0.1-2.1 0.6-3 0.4-0.6 0.8-1.5 1.7-1 0.8 0.5 1 1.3 0.4 2.1 0.9 2.1 1.3 4.3 1.4 6.6 0.2 3-0.9 5.8-1.5 8.7-0.1 0.4-0.4 0.7-0.1 1.2 0.8-0.1 0.9-0.9 1.3-1.5 1.8-2.7 1.7-5.8 2.4-8.8 0.3-1.4 0.5-2.7 0.7-4.1 0.1-0.5 0-1 0.7-1 0.6 0 0.8 0.3 1 0.8 0.7 1.7 0.6 3.6 0.3 5.3-0.5 2.4-1.1 4.8-1.7 7.1-0.2 0.6-0.5 0.9-0.9 1.3-1.6 2.1-2.7 4.5-3.5 7-0.3 0.7-0.1 1 0.7 1 1.1 0 2.2 0.2 3.3 0.3 0.7 0.4 1.5 0.8 0.8 1.7-2.6 0.7-4.5 2.4-6.1 4.4-0.7 0.9-1.2 1.8-0.5 3.1 0.7 1.4 0.6 3.1-0.2 4.4-0.5 0.7-0.6 1.3-0.6 2 0.1 3.4-1.1 6.7-1.1 10 0.1 6.6-2.5 12.8-2.7 19.3q0 0.8 0 1.6c0 0.6-0.2 1.1 0.9 1 1.3-0.1 1 1.2 1 2 0.1 1-0.4 2.2 1.2 2.4 0.2 0 0.4 0.1 0.4 0.3 0.8 3 2.3 5.9 1.1 9.2-1.3 0.3-1.6-0.4-1.7-1.5-0.4-1.2-1.8-0.9-2.4-1.7-1 3-0.4 5.8-0.2 8.6 0.5 6.6-0.4 13.2-0.3 19.8 0 0.9 0.3 1.7 0.8 2.5 1.9 3.8 4.7 7.1 5.7 11.3 0.1 0.5 0.8 1.5-0.5 1.7-1.5 0.3-2.4-0.8-3.4-1.6-0.9-0.7-1.5-1.9-2.4-2.7-0.5 1 0.4 2.2-0.3 3.2-0.2 1.3-0.4 2.7-0.6 4.1 0 0.7-0.3 1-0.9 1-0.6 0.1-0.7-0.5-0.8-0.9-0.1-0.5-0.1-1-0.1-1.4 0.4-2.3 0-4.7 0.4-7 0.6-3.4 0.2-6.9 0.3-10.4 0.2-7.4 0.6-14.7 0.5-22.1-0.1-1.2-0.1-2.4-0.4-3.6-0.3-1.2-0.1-2.4 1-3.3 0.9-0.8 1-1.6 0.2-2.4-0.2-0.3-0.5-0.5-0.5-0.9 0.2-3.8-0.6-7.7-0.2-11.5-0.1-0.5 0-0.9 0.1-1.3-0.2-3.7 0.4-7.4 0.5-11 0.4-7.8 1.5-15.6 0.8-23.5 0-0.5 0.2-1.1-0.4-1.6-0.7 0.3-0.7 1-0.9 1.6-2.6 6.9-3.9 14.3-6.4 21.3-2.4 6.6-4.8 13.2-7.4 19.8-0.4 1.1-0.4 2.3-0.7 3.5-1.1 4.2-3.4 8-5.3 11.8-4.9 9.3-10.1 18.6-15.2 27.9-0.9 1.6-1.9 3.2-2.8 4.8-0.5 1-1 1.3-2 0.6-0.7-0.6-1-0.2-1.3 0.6-1 2.7-1.6 5.4-3.1 7.9-2 3.5-8.3 6.1-12.1 5-1.5-0.4-2.6-1.4-2.7-2.9-0.2-3-0.5-6 1.5-8.6 0.3-0.5 0.5-1.1 1.1-1.4 1.3-0.4 1.5 0.3 1.2 1.3-0.3 1.1-1 2-1.6 3q-0.2 0.5-0.3 1 0 0.1 0 0.1c0.6-2.3 2.6-3.7 4.1-5.4-2-1.7-1.9-2.2 0.4-3.4 0.6-0.3 0.8-0.5 0.4-1.3-0.5-1-0.6-2.3 0.3-3.4q0.2-0.3 0.5-0.6-0.1-0.2-0.1-0.3c0.2-0.3 0.1-0.6 0.3-0.8 0-0.5 0.2-0.8 0.8-0.6l-0.1-0.2c1.4-0.2 2.1-0.9 2-2.3 0-0.4 0.1-0.8 0.4-1.1q0.1-0.3 0.2-0.7 0-0.2 0.2-0.4c4.2-5.5 7.1-11.8 9.6-18.2 0.8-2 0.7-4.4 0.9-6.6 0.1-0.8 0.1-1.6 0.4-2.4 1.2-2.8 1.3-5.8 2.3-8.7 0.4-1.2 1-1.4 1.9 0-0.4-2.3-0.3-4.3 0.7-6.1 0.2-0.6 0.1-1.4 0.8-1.8 0.1-0.6 0.3-1.1 0.7-1.7 0.6-2.2 1.1-4.4 0.8-6.7-0.2-1.8 0.5-3.2 1.9-4.2 1.5-3.7 2.3-7.7 3-11.6 0.9-4.4 1.6-8.8 1.6-13.3-0.6-1.9 0.6-3.5 0.8-5.3 0-0.5 0.4-0.9 1-0.8 0.6 0.1 0.7 0.6 0.7 1.1 0.2 1.7 0.1 3.5 0.1 5.2 0 0.8 0 1.7 0.1 2.5 0.1 0.5 0.2 1.1 1 0.9 1.1-0.4 1.3 0.4 1.3 1.2 0.1 0.7 0.1 1.5-0.1 2.2-0.4 2.1-1.1 4.2-0.7 6.4 0.2 1.4-0.6 2.7-1.2 4-1.4 3.4-3.8 6.3-5.7 9.4-0.6 1.1-1 2.2-1.1 3.5-0.4 3.1-0.8 6.1-2.7 8.8-0.6 0.8-0.9 1.8-1 3q3.3-2.1 5.9-5c1.1-1.3 2.2-2.5 3.4-3.6 0.4-0.4 1-0.8 1.6-0.5 0.7 0.3 0.5 1 0.5 1.7 0 0.6-0.2 1.1-0.4 1.7-3.5 6.4-7.1 12.9-14.1 16.4 1.5 0.3 3.5-0.4 5.1-2.3 1.8-2 3.8-3.9 5.4-6.1 0.4-0.5 0.7-1.1 1.3-1.5 2.5-1.7 3.3-4.5 4.4-7.1 0.7-1.5 1.5-3 2.3-4.5 0.3-0.8 0.7-1.6 0.8-2.5 0.6-5.2 2.7-10 4.6-14.8 0.6-1.3 1-2.8 1.7-4.1 0.5-0.8 0.8-1.7 1-2.5 0.5-1.4 0.9-2.7 0-4-0.2-0.3-0.2-0.6-0.1-1q-0.2-0.1-0.3-0.3c-0.4-1-0.5-1.9 0.2-2.8q0.2 0 0.3 0 0-0.1 0-0.1l-0.1-0.2q-0.1-0.2-0.2-0.4c-0.5-2.1-0.8-4.2 0.3-6.3 0.1-0.1 0.2 0 0.4 0q-0.1 0-0.1-0.1 0 0 0 0 0 0 0 0 0 0 0 0-0.1-0.1-0.1-0.1c-0.4-1.1-0.2-2.1 0.5-3q0.2 0 0.3 0 0-0.1 0-0.1c0.4-0.6-0.5-1.9 0.7-2.1q0-0.1 0-0.2 0.4-1.8 0.1-3.7c-0.5-2.7 0.1-5.3 0.6-8 0.7-3.5 0.4-3.7-3.1-3.3-1.8 0.2-3.5 1-5.3 1.2-0.8 0-0.9 0.6-1 1.3-0.3 2.5-0.6 5-1.2 7.4-0.5 2.1-1 4.1-2.7 5.6-0.8 0.8-0.8 2-1.3 3-0.5 1.1-1.1 2.2-2.3 2.8-1 0.5-1.5 0.1-1.5-1 0-0.9 0.3-1.8 0.5-2.7q0-0.4 0.1-0.7c0.1-0.4 0.4-0.6 0.6-0.9 1.2-4.1 2.5-8.1 3.3-12.2 0.3-1.5 0.7-3 2.2-4-3.5-2.1-4.5-5.9-6.8-8.7-0.9-0.4-1.1-1.3-1.4-2.2-2-4.5-5.2-8.4-7.7-12.7-2-3.5-5.3-6.1-6.6-10.1-1.1-3.3-2.1-6.7-2.9-10.2-0.6-2.3-1.9-4.5-1.4-7 0.6-2.7-0.1-5.6 1.4-8 0.6-0.9-0.1-1.1-0.7-1.3-2.8-0.9-5.5-1.9-7.7-3.9-1-1-2.7-1.9-1.2-3.8 0.3-0.3-0.1-0.6-0.3-0.9-1.5-2.7-3.1-5.4-4.1-9-3.8 1.5-17.9 7.1-24.6 9.7-0.5 0.4-1.1 0.6-1.8 0.7q-0.1 0.1-0.3 0.2c-0.4 0.3-0.9 0.4-1.4 0.6-4.9 1.6-9.5 3.7-13.9 6.1-1.9 1-2.3 3.1-3.3 4.7-0.1 0.5-0.2 0.9-0.8 1.1-0.3 0.3-0.7 0.5-0.6 1-0.1 0.7-0.6 0.9-1 1.2q-1.8 0.9-3.8 1c-3.3 0-4.5-1.8-3.6-5.3 0.3-0.1 0.6-0.1 0.8 0 1.4 0.8 2.7 0.6 4.1 0 0.8-0.9 1-2.1 1.6-3 0.3-0.3 0.4-0.7 0.1-1.1-0.4-0.3-0.8-0.2-1.2-0.1-0.9 0.3-1.7 0.9-2.7 1.1-0.4-0.1-0.8 0.6-1.2 0.2-0.3-0.4 0.1-0.9 0.2-1.3 0.4-1.2 1.5-1.8 2.5-2.4 1.7-1 3.6-0.6 5.3-0.6 1.6 0 3.1 0.1 4.6-0.7 0.4-0.2 0.9 0.1 1.4-0.1 4.4-1.7 8.8-3.3 13.1-5.1 7-2.8 13.9-5.7 20.8-8.5 1.3-0.5 5.9-2.3 6.4-3.7 1.5-4.5 5.2-6.2 9.4-7 2.3-0.5 4.6-0.6 6.8 0.2 1.5 0.5 2.8 0.4 4.3 0 1.7-0.6 28.4-11.7 31.7-8.2 3.4 3.6 2.1-0.7 3.1-0.2 0.6 0.4 0.5 1.1 0.8 1.7q1.4 0.3 1.7 1.7 0.6 0.7 1.1 1.4c0.7 0.2 1 0.7 1.3 1.3-0.1-1 0.6-1 1.2-0.9 0.9 0 1.7 0.3 2.4 0.9 0.4 0.4 0.8 0.8 1.6 0.8-0.3-2.4-1.7-4.1-3.4-5.6-0.6-0.3-1.3-0.8-0.9-1.5 0.3-0.6 1.2-0.2 1.8-0.1 2.4 0.9 3.8 2.9 4.6 5.1 1.3 3.5 2.3 7.2 3.7 10.7q2.7 6.8 3.5 14.1c0.5 1.3 1.5 2.5 0.7 4 0 2.9-0.7 5.9-0.4 8.9 0.1 1 0.7 2.1-0.7 2.7-1.8 1.6-3.9 2.3-6.3 2.3q-0.2 0-0.3 0.1c-0.8 0.5-1.6 0.6-2.5 0.7-4.1 0.4-6.5 3.2-8.7 6.3-0.2 0.3-0.1 0.7 0.1 1 0.6 1.3 0.6 2.7 0.5 4.3-1.9-0.9-3.3-2.3-4.7-3.6-1.6-1.4-2.5-3-2.1-5.2 0.2-0.7 0.2-1.4-0.5-1.8-0.9-0.8-1.1-1.7-0.3-2.6 0.9-1 1.8-2 3.4-1.8 0.5 0 0.8 0.4 0.9 0.9 0 1.7 0.9 3.3 0.4 5-0.1 0.3-0.2 0.7 0.2 0.9 0.4 0.2 0.7-0.1 1-0.3 0.9-0.9 0.9-2 0.8-3.1-0.2-2.2 0.2-3.1 2.2-4.1 1.4-0.7 2.9-1.1 4.4-1.8 2.5-1.2 3.2-2.3 3-4.7 0-0.5-0.1-1-0.7-1.3-0.6-0.3-1.1 0-1.6 0.4-0.1 0.1-0.3 0.3-0.5 0.5-2.8 3.7-7 5.3-11.2 6.8-1.2 0.5-2.4 1-3.2 2.2-0.7 1-1.9 1.5-3.2 1.6-2.1 0.6-3.8 2.1-5.6 3.3-0.6 0.3-0.8 0.8 0 1.1 2.8 1.2 3.7 3.7 4.8 6.1 1.2 1.4 0.9 2.9 0.2 4.2-0.8 1.5-1.5 3-2.4 4.5-0.7 1-1.1 2.1-1.7 3.2-0.4 0.9-1 1.3-2 1.1-1-0.3-0.9-1.1-0.8-1.9 0.7-3 0.5-6.3 1.7-9.2 0.1-0.4 0.1-0.7 0-1.1-0.1-0.6 0.2-1.7-0.7-1.7-0.8 0-0.5 1-0.7 1.6-0.1 0.6-0.2 1.2-0.5 1.7-0.9 1.2-1.4 2.4-0.3 3.9 0.4 0.6 0 1.5-0.5 2.1-1.9 2.8-2.1 5.6-0.4 8.6 0.2 0.4 0.4 0.9 0.3 1.3-0.7 3.3 1.4 6.5-0.1 10.1 1.3-0.7 1.8-2.5 3.1-0.9 0.6 1.5 0.1 2.9 0 4.4q-0.1 0.6-0.1 1.1 0 0 0-0.1c0.8-2 0.8-4 0.6-6.1 1.1-3.5 3.3-6.5 3.9-10.1 0.3-1.4 0.6-2.7 0.5-4.1-0.4-3.8 1-7.2 2.6-10.4 1.2-0.3 2.1-0.4 2.4 1.1 0.1 0.2 0.3 0.4 0.5 0.5 1.7 1 2.6 2.4 2.9 4.6 0.2 1.4 0.6 2.6-0.1 3.9-0.2 0.4-0.3 1-0.9 1-0.6 0-0.8-0.5-1-1q-0.4-0.9-0.9-1.7c-0.2-0.3-0.2-0.9-0.8-0.8-0.4 0.1-0.6 0.6-0.7 0.9-0.5 2.2-1.7 4.3-1 6.7 0.2 0.8-0.2 1.4-0.5 2.1q-1.7 4.6-3.4 9.2c-0.6 1.5-0.7 3.1-1.6 4.4-0.3 0.5-0.6 1.1-1.1 1.3-0.8 0.4-1.3 0.2-1.4-0.7-0.1 2.2 0.5 2.2 3.6 1.5q0.6-0.1 1.2-0.1 0.2 0 0.4 0c0.7-0.8 1.8-0.9 2.7-1.2q0.2-0.1 0.4-0.2c0.5-0.3 0.6-1.2 1.4-1 0.1 2.1 1.6 2 3.2 2.1q3.4 0.3 6.9 0.4c1.4 0 2.2-0.2 2-1.8-0.1-0.3 0-0.8 0.4-1 0.1 0 0.3 0.1 0.3 0.1-0.1 1.9 0.9 2.3 2.7 2.1 1.1-0.2 2.2 0.1 3.5 0.2 0.2-3.2-2.4-5.9-2.2-9.1-0.1-0.6-0.2-1.2-0.2-1.8 0-1.1-0.5-2-0.7-3-0.1-0.4-0.4-0.9 0-1.2 0.5-0.3 0.9 0.1 1.2 0.5 0.6 0.5 0.9 1.2 1.1 1.9 0.8 2.2 1.1 4.4 1.3 6.7 0.2 3.4 1.7 6.4 3 9.5 1.3 1.4 1.3 3.2 1.3 5q0.9 8.4 1.9 16.8c0 0.2 0.2 0.4 0.3 0.6 1.1 1.4 1 3 1.1 4.6q0 0.3 0 0.7c0.2 2.6 0.7 5.1 0 7.7-0.7 4.6 0 9.3-0.7 14-1 6.2-1.3 12.5-2.3 18.7-0.6 4.2-1.3 8.1 0.4 12.2 0.7 1.6 0.4 3.2-0.4 4.8-2.1 4.9-2.6 10.1-2.2 15.3 0.2 2.4 1.3 4.9 1.3 7.5-0.1 2.9-0.5 5.8-0.8 8.7-0.4 2.5-0.4 5 0.1 7.4 1.2-1.2 2.6-2.3 3.2-4.1q-0.1-0.4-0.1-0.9c0-0.4 0-0.9 0.6-1.1 0.6-0.1 0.6 0.5 0.8 0.8 1.6 2.2 1.5 4.7 1.5 7.2 0.3-0.5 0.8-0.4 1.3-0.4 0.7-0.9 1.7-1.7 2-3 0.3-1.2 2.7-2.1 4.1-1.9 0.7 0.1 0.5 0.6 0.5 1-0.2 1-0.4 2-0.7 3.5 2.2-1.9 4.1-3.6 5.4-5.9 0.7-0.2 0.4 0.6 0.7 0.7-0.1 1.3-0.9 2.3-1.1 3.7 1-0.9 2.1-1.8 3.1-2.6 1.1-0.8 2.1-1.7 3.7-2.2-1.4 2.4-2.4 4.6-3.3 6.9 1 0.5 1.6 0 2.2-0.5 1.3-1.3 2.6-2.5 3.9-3.8q0.3-0.2 0.5-0.5c0.8-0.5 1.7-1.5 2.4-0.9 0.7 0.5-0.2 1.5-0.4 2.3q-0.1 0.3-0.2 0.7c-0.1 0.6-0.3 1.2-0.4 1.9 0.6-0.1 0.9-0.7 1.5-0.8 1.6-1.3 3.5-2.2 4.7-3.9 0.3-0.4 1-0.9 1.5-0.4 0.4 0.5 0 1.1-0.3 1.4-1.6 1.3 0.1 3.4-1.5 4.6 1.6-0.6 2.4-2 3.4-3.1 1-1.2 2.3-1.9 3.9-2.1 1.1-0.1 1.4 0.3 1.2 1.3 0 2-1.4 3.3-2.1 4.7 1-0.8 2.2-1.7 3.7-2.1 0.8-0.6 1.8-0.8 3-1.1zm-74.5-181.3c-0.1 1.1-0.9 1.6-2 1.3-1.5-0.4-2.7 0.1-3.8 1.2-1.1 1.2-2.5 2-4 2.8-1.1 0.7-2.2 1.3-3 2.6 1.6 0.1 2.8-0.6 4-1.1 1-0.4 1.8-0.9 2.5-1.6 3.4-3.5 8-4.6 12.3-6.3 2.9-0.5 6-0.5 8.7-1.9 2.1-1.2 3.4-2.8 3.6-5.2 0.3-3.4 1.1-6.7 0.1-10.1-0.4-1.2 0.1-2.4 0.1-3.6 0-3.8-1.5-6.8-3.8-9.6-0.1-0.3-0.2-0.6-0.4-0.9 0.2 0.4 0.3 0.9 0.6 1.2 0.7 0.8 1 1.7 1.3 2.7 0.1 0.4 0.3 1.1-0.1 1.3-1.9 1.1-3.4 11.2-3.6 11.9-0.8 2-0.6 8.6-1.3 10.7-0.9 2.7-6.2-0.9-8.5 0.6-0.4 0.1-0.7 0-0.9-0.3-0.2-0.4-0.2-0.7-0.2-1.1q0-0.2 0.1-0.5c0.3-1.2 0.8-2.2 1.4-3.3 0.2-0.2-0.1 0 0.1-0.1 2.8-1.3 3.1-4 3.5-6.4 0.6-3 1.2-5.9 1.4-8.9 0.1-1 0-1.9-0.2-2.9-0.5-1.9-1-3.9-2.5-5.5-4.2-4.3-26.5 5.4-28 5.4-0.6 0-2.9 0.6-2.4 1.3 0.8 1.4 1.5 2.8 2 4.3 0.1 0.5 0.6 0.7 1 0.9 2.1 1.3 2.7 5.6 1 7.3-0.7 0.7-1.7 0.5-2-0.5-0.9-3-3.3-4.6-5.8-6-0.7-0.4-1.1-0.9-1.4-1.7-0.5-1.6-1.5-1.8-2.8-0.7-0.6 0.6-1.1 1.3-1.5 1.9-1.2 1.8-2.8 2.9-5 2.7-0.9 0-2.1-0.2-2 1.3 0.2 1.9 1.4 3.3 2.7 3.1 0.6-0.1 1.2-0.4 1.8-0.5 2.1-0.5 3.6 0.5 3.5 2.5-0.1 2.2 0.9 3.4 2.8 4.1 0.3 0.1 0.7 0.3 0.8 0.6 0.3 1.5 0.9 2.7 2.3 3.5 0.7 0.4-0.2 1.1-0.6 1.5-3.6 3.2-4.9 8.8-3.1 13.4 0.7-0.8 1.4-1.5 1.6-2.6 0.3-1.1 1-1.6 2.1-1.5 1.5 0 2.9-0.1 4.3-0.6 0.7-0.2 1.4-0.2 2.1 0.1 0.8 0.5 1.5 0.4 2.3 0q0.5-0.2 1 0c1.3 1.4 1.5-0.2 2.1-0.7 1.7-2.6 4-4.9 5.6-7.6 0.3-0.7 0.7-1.3 1-2 0.4-0.8 0.8-1.6 1.8-1.2 1.1 0.5 1 1.6 0.9 2.6-0.4 1.5-1 2.9-1.9 4 0.7-0.7 1.5-1.5 2.1-2.4 0.8-0.9 1.2-2.1 1.9-3.1 1.5-1.3 3.4-0.5 5.1-0.7q0.4 0 0.8 0.3 0.1 0 0.1 0.1c0.5-0.4 0.8 0.2 1.1 0.3 0.4 0.2 1.1 0 1.1 0.5 0.1 0.5-0.5 0.2-0.8 0.3q-0.7-0.1-1.4-0.3c-0.8 0.8-1.6 1.7-1.6 3.1zm-8.8 2.4q0.2-0.2 0.4-0.5-0.2 0.3-0.4 0.5zm37.6 93.2q0 0.1 0 0.2c0.3-2-0.2-4.1 0.1-6.4-0.4 2.2 0.1 4.2-0.1 6.2zm0 0.2q-0.1 0.5-0.1 1.1 0-0.6 0.1-1.1 0 0 0 0zm-0.1 1.1q0 0.3-0.1 0.6 0.1-0.3 0.1-0.6zm-0.3 1.9c-0.3 0.7-0.3 1.5-0.4 2.3 0.1-0.8 0.2-1.6 0.4-2.3z"></path><path class="a" d="m105.9 219.9c-1-0.8-2.1-0.1-3.2-0.2-1.7 0-1.8-0.1-1.6-1.8 0.1-1 0-2 0.2-3.1-3.7-1.1-5.1 1.9-7.1 4.1-0.4-1 0.8-1.6 0.5-2.2-3.1-1.7-3.7 1.7-5.7 2.5 0-2.4 0-4.6 0-6.8 0-0.4 0.2-0.9-0.3-1.1-0.5-0.3-0.8 0.2-1.1 0.5-0.4 0.3-0.7 0.7-0.9 1.1-1.4 1.8-2.3 3.8-3.4 5.7-0.8 1.5-1.7 1.7-3.2 0.9-0.7-0.4-1.3-1-2.2-1.1 0 1.6 0.8 2.6 2.1 3.1 2.6 0.8 5 0.3 6.9-1.9 0.5 0.7 0.7 1.7 1.8 1.7 0.5 0.2 1 0.3 1.5 0 0.6 0.1 1.2-0.8 1.9 0 0.9 1 1.8 0.5 2.8 0q1-0.7 2.1-1.3c0.4-0.2 0.8-0.3 0.9 0.5 0 1.4 0.9 1.8 2.2 1.7 1.5 0 2.9-0.2 4.2-0.8 0.7-0.3 1.5-0.6 1.6-1.5z"></path><path class="a" d="m115 65.9c-0.4-1.1-1.2-0.6-1.9-0.7-0.4-0.1-0.8-0.2-1 0.4-0.4 2.2-1.2 4.4 0.2 6.6 0.2 0.3 0.6 0.4 0.9 0.2 0.9-0.7 1.6-0.3 2.2 0.5 0.1 0.2 0.5 0.2 0.7 0.4 1.1 0.6 2.2 1.4 3.6 1.2 0-0.9-0.6-1.3-0.8-1.8-0.4-1.2-1.4-2.1-1.8-3.3-0.8-1.1-1.6-2.2-2.1-3.5z"></path><path class="a" d="m86.5 34.3c-0.5-0.1-1-0.6-1.4 0-0.3 0.5-0.1 1.1 0.2 1.5 0.6 0.8 0.5 1.7 0.4 2.6-0.1 0.4-0.5 1.2 0.6 1.2 1.6-1.3 3.1-2.7 3.8-4.8q-1.3-0.3-2.4-0.5-0.6 0-1.2 0z"></path><path class="a" d="m75.4 24.9q0.1 0 0.1-0.1 0-0.1-0.1-0.3c-2.3-2-2.4-2-4.5-0.4q-0.3 0.2-0.6 0.4c-0.4 0.2-1.2 0.3-0.8 1 0.3 0.6 0.6 1.3 1.4 1.1 1.2-0.3 2.4-0.1 3.5-0.7q0.5-0.2 1-0.3 0.3-0.4 0-0.7 0 0 0 0z"></path></g></svg>