<svg xmlns="http://www.w3.org/2000/svg" viewBox="0 0 107 22" width="107" height="22"><defs><clipPath clipPathUnits="userSpaceOnUse" id="cp1"><path d="m0.56 22.01h106.16v-21.45h-106.16z"></path></clipPath></defs><style>.a{fill:#b89a69}</style><g clip-path="url(#cp1)" style="opacity:.7"><path class="a" d="m89.6 9.9c-5.3-0.8-7.2 0.1-7.5-0.4-0.3-0.5 1.7-0.7 3.8-1.7 2-1 1.1-3.9 0.4-3.5-0.8 0.4 0.4 1.8-0.8 2.6-1.2 0.8-2.2-0.2-4.2 1.2-2 1.4-1.7 3.2-1.7 3.2 0 0-0.3 1.7 1.7 3.2 2 1.4 3 0.4 4.2 1.2 1.2 0.8 0 2.2 0.8 2.6 0.7 0.4 1.6-2.5-0.4-3.5-2.1-1-4.1-1.2-3.8-1.7 0.3-0.6 2.2 0.3 7.5-0.4 2.7-0.4 7.1-0.9 10.8-0.9 3.5 0 6.3 0.4 6.3-0.5 0-0.9-2.7-0.5-6.2-0.5-3.6-0.1-8.2-0.5-10.9-0.9z"></path><path class="a" d="m77 9.7c-1 0-1.2 1.2-1.2 1.2h-7.9c0-0.4 1.7-0.6 4.2-2.1 2.6-1.6 3.6-4.4 3.5-6.4-0.1-1.9-0.8-2.4-0.8-1.2 0 1.2-0.9 2.8-2.9 3.6-1.9 0.8-1.4 2.4-1 2.8 0.3 0.4 1.5 0.6-1.5 2-3.1 1.3-6.5 0.8-7.2 0.8-0.7 0.1-0.6 0.9-0.6 0.9 0 0-0.1 0.7 0.6 0.8 0.7 0.1 4.1-0.4 7.2 0.9 3 1.3 1.8 1.6 1.5 2-0.4 0.4-0.9 2 1 2.8 2 0.8 2.9 2.3 2.9 3.5 0 1.3 0.7 0.8 0.8-1.2 0.1-1.9-0.9-4.7-3.5-6.3-2.5-1.5-4.2-1.7-4.2-2.1h7.9c0 0 0.2 1.2 1.2 1.2 1.1 0 1.4-0.7 1.4-1.6 0-0.9-0.3-1.6-1.4-1.6z"></path><path class="a" d="m59.5 11.3c0-0.7 0.2-0.3 1.4-1.4 1.2-1.2 1.3-3.8 0.9-3.7-0.4 0-0.4 1.6-1.5 1.9-1 0.2-1.1-0.8-1.5-0.6-0.4 0.1 0 0.5 0.1 1.3 0 0.8-1.1 1.6-2.2 1.7-1.2 0.1-1 0.8-1 0.8 0 0-0.2 0.7 1 0.8 1.1 0.1 2.2 0.8 2.2 1.6-0.1 0.8-0.5 1.3-0.1 1.4 0.4 0.1 0.5-0.8 1.5-0.6 1.1 0.3 1.1 1.9 1.5 1.9 0.4 0 0.3-2.5-0.9-3.7-1.2-1.2-1.4-0.7-1.4-1.4z"></path><path class="a" d="m17.7 9.9c5.2-0.8 7.1 0.1 7.4-0.4 0.4-0.5-1.6-0.7-3.7-1.7-2-1-1.1-3.9-0.4-3.5 0.8 0.4-0.4 1.8 0.8 2.6 1.2 0.8 2.1-0.2 4.2 1.2 2 1.4 1.7 3.2 1.7 3.2 0 0 0.3 1.7-1.7 3.2-2.1 1.4-3 0.4-4.2 1.2-1.2 0.8 0 2.2-0.8 2.6-0.7 0.4-1.6-2.5 0.4-3.5 2.1-1 4.1-1.2 3.7-1.7-0.3-0.6-2.2 0.3-7.4-0.4-2.7-0.4-7.2-0.9-10.8-0.9-3.5 0-6.3 0.4-6.3-0.5 0-0.9 2.6-0.5 6.1-0.5 3.7-0.1 8.3-0.5 11-0.9z"></path><path class="a" d="m30.2 9.7c1.1 0 1.3 1.2 1.3 1.2h7.9c0-0.4-1.7-0.6-4.3-2.1-2.5-1.6-3.5-4.4-3.4-6.4 0.1-1.9 0.8-2.4 0.8-1.2 0 1.2 0.9 2.8 2.9 3.6 1.9 0.8 1.4 2.4 1 2.8-0.3 0.4-1.5 0.6 1.5 2 3 1.3 6.5 0.8 7.2 0.8 0.7 0.1 0.6 0.9 0.6 0.9 0 0 0.1 0.7-0.6 0.8-0.7 0.1-4.2-0.4-7.2 0.9-3 1.3-1.8 1.6-1.5 2 0.4 0.4 0.9 2-1 2.8-2 0.8-2.9 2.3-2.9 3.5 0 1.3-0.7 0.8-0.8-1.2-0.1-1.9 0.9-4.7 3.4-6.3 2.6-1.5 4.3-1.7 4.3-2.1h-7.9c0 0-0.2 1.2-1.3 1.2-1 0-1.4-0.7-1.4-1.6 0-0.9 0.4-1.6 1.4-1.6z"></path><path class="a" d="m47.7 11.3c0-0.7-0.1-0.3-1.3-1.4-1.2-1.2-1.3-3.8-0.9-3.7 0.4 0 0.4 1.6 1.4 1.9 1.1 0.2 1.2-0.8 1.6-0.6 0.4 0.1-0.1 0.5-0.1 1.3 0 0.8 1.1 1.6 2.2 1.7 1.2 0.1 1 0.8 1 0.8 0 0 0.2 0.7-1 0.8-1.1 0.1-2.2 0.8-2.2 1.6 0 0.8 0.5 1.3 0.1 1.4-0.4 0.1-0.5-0.8-1.6-0.6-1 0.3-1 1.9-1.4 1.9-0.4 0-0.3-2.5 0.9-3.7 1.2-1.2 1.3-0.7 1.3-1.4z"></path></g></svg>