<svg xmlns="http://www.w3.org/2000/svg" viewBox="0 0 333 88" width="333" height="88"><style>.a{fill:#fff}</style><path fill-rule="evenodd" class="a" d="m103.5 54.1q0.4 0.5-0.1 0.9-0.8 0.7-3 0.7-0.6 0-1.4-0.1-0.8 0-1.6-0.1-8.5-1.2-16.5-4.1-8-2.9-15.7-6.5-0.1 0.1-0.3 0.7-0.2 0.5-0.4 1.3-0.3 0.8-0.5 1.6-0.3 0.8-0.5 1.2-0.5 2-0.8 3.7-0.3 1.6-0.2 2.2l0.1 0.4 0.5-0.5q0.5-0.5 0.7-0.5 0.6 0 0.6 0.4 0 0.4-0.7 1.1-0.5 0.4-0.6 0.5-0.2 0.1-0.5 0.1-0.7 0-1.1-0.6-0.1-0.3-0.1-1.5 0-1.2 0.3-2.3 0.1-0.5 0.3-1.4 0.2-0.8 0.5-1.7 0.3-1 0.6-1.9 0.3-1 0.6-1.7l0.5-1.5-1.2-0.6q-1.2-0.7-1.8-1.1-0.5-0.3-1.1-1-0.6-0.6-0.6-1 0-0.5 0.2-0.9 0.2-0.4 0.8-0.7 0.6-0.4 1.7-0.8 1.1-0.4 2.8-1 0.9-0.3 1.6-0.5 0.6-0.3 0.7-0.3 0.1-0.2 0.4-0.7 0.3-0.6 0.6-1.4 2.9-6.6 6.4-12.7 3.5-6.1 7.4-12 1.5-2.2 2.5-3.6 1.1-1.5 2.5-2.9 0.3-0.5 0.6-0.8 0.2-0.3 0.2-0.3-1.1 0.3-1.8 0.5-0.8 0.2-1.6 0.5-0.9 0.2-1.5 0.5-6 2-10.2 5.2-0.8 0.6-1.6 1.3-0.9 0.8-1.5 1.5-0.7 0.7-1.2 1.3-0.4 0.5-0.4 0.8 0 0.4 1.2 0.5 0.7 0.1 0.9 0.2 0.3 0.1 0.3 0.4 0 0.6-0.9 0.6-1 0-1.8-0.5-0.8-0.4-0.8-1.1 0-0.6 0.5-1.4 0.5-0.7 2-2.2 2.3-2.3 5.4-4.2 3.1-1.9 6.5-3.2 3.4-1.3 6.9-2 3.6-0.7 7-0.7 1.7 0 2.7 0.1 0.9 0.1 1.6 0.2 3.2 0.5 5.5 1.8 2.3 1.4 3.2 3.2 0.3 0.7 0.3 1.8 0.1 1.1-0.2 2.1-0.5 2.5-2.1 4.9-1.7 2.5-3.9 4.6-2.2 2.2-4.5 4-2.4 1.8-4.3 3.1-4.4 2.9-10.5 5.7-6 2.7-13.5 5.4l-1.6 0.6-1.1 3q-0.6 1.2-0.9 2.1-0.4 1-0.3 1.1 0 0.1 1.4 0.7 1.3 0.6 3.3 1.5 1.9 0.8 4.2 1.7 2.2 0.9 4.1 1.6 1.7 0.7 4.6 1.6 2.9 0.9 6 1.7 3.1 0.8 6 1.4 2.9 0.5 4.9 0.5 1.1 0 1.9-0.3 1-0.3 1.1-0.3 0.2 0 0.3 0.1zm-39-10.7q0 0 0.3-0.6 0.3-0.6 0.7-1.6 0.3-0.9 0.6-1.7 0.3-0.8 0.5-0.9l0.1-0.5-0.3 0.1q-0.9 0.3-1.9 0.6-1 0.4-1.8 0.7-0.7 0.3-1.3 0.5-0.5 0.3-0.6 0.4-0.3 0.3 0.4 1 0.8 0.7 2.2 1.5 0.3 0.2 0.7 0.3 0.2 0.2 0.4 0.2zm5.7-10.5q-0.9 2-1.2 2.6-0.3 0.6-0.2 0.6 0.1 0 0.6-0.2 0.6-0.2 1.4-0.5 4.3-1.5 9.1-3.6 4.9-2 9.6-4.7 4.6-2.6 8.7-5.9 4.2-3.2 6.9-7 0.6-0.9 1.2-2.2 0.7-1.4 1-2.3 0.7-2.6-0.6-4.5-1.3-2-4.5-3-1.2-0.4-3.1-0.7-1.8-0.2-3.7-0.2-0.6 0-1.2 0-0.6 0.1-1.1 0.1-1.7 0.1-2.9 0.3-1.2 0.2-1.1 0.4 0.3 0.3-0.2 1.3-0.4 0.6-0.7 0.6-0.4 0-1.9 1.9-1.5 1.9-3.8 5.3-2 3-3.7 5.7-1.7 2.8-3.1 5.4-1.5 2.6-2.9 5.2-1.3 2.6-2.6 5.4z"></path><path fill-rule="evenodd" class="a" d="m118.1 34.4q0.6 0.2-0.3 1-0.9 0.8-3.1 1.6-2.2 0.8-4.8 1.4-2.5 0.7-4.8 1.1-2.4 0.4-3.7 0.4-1 0-2-0.3-1.1-0.4-1.5-1.4-0.1-0.4-0.1-1.1 0-0.6 0.2-1.1 0.1-0.1 0.2-0.4 0-0.2 0.1-0.3 0.2-0.6 0.7-1.3 0.6-0.7 1.4-1.3 0.7-0.6 1.6-1 0.8-0.3 1.5-0.4 0.7 0 1.2 0.1 0.5 0.1 1 0.6 0.4 0.4 0.4 0.8 0 0.9-0.7 1.8-0.7 0.9-1.7 1.4-0.6 0.3-0.9 0.4-0.3 0-1.3 0-1.3 0-1.7-0.2-0.2-0.1-0.5-0.1-0.3 0-0.4 0.8 0 1.9 2.7 1.9 1.3 0 3.4-0.4 2.1-0.4 4.2-1 2.2-0.5 4.1-1.2 2-0.7 3.1-1.2 1.3-0.7 1.5-0.7 0.1 0 0.1 0 0.1 0.1 0.1 0.1zm-17.6-0.3q-0.7 0.7-0.7 0.9 0 0.1 0.3 0.2l0.5 0.1q0.1 0.1 0.5 0.1 0.4 0 1.1-0.1 0.6-0.2 1-0.4 0.6-0.3 1.1-0.8 0.5-0.4 0.7-0.8 0-0.2-0.2-0.6-0.1-0.3-0.4-0.3-0.2 0-0.3 0-0.1 0-0.2 0-0.8 0.1-1.7 0.6-0.9 0.4-1.7 1.1z"></path><path fill-rule="evenodd" class="a" d="m133.7 34.3q0.3 0 0.5 0.2 0.1 0.2 0 0.5-0.1 0.3-0.4 0.4-0.2 0.1-0.9 0.4-0.9 0.3-2.3 0.9-1.4 0.6-2.9 1.3-1.5 0.7-2.9 1.4-1.4 0.7-2.4 1.3l-0.9 0.5 0.3 0.7q0.8 1.8-0.4 3.4-1.1 1.7-3.9 3-2.1 1-3 1-0.3 0-0.7-0.2-1.5-0.6-0.6-2.7 1-1.9 5.6-4.9 0.8-0.5 0.8-0.6-0.1-0.1-0.2-0.3-0.2-0.1-0.3-0.2-0.1-0.1-0.3-0.2-1.3-1-1.8-1.6-0.5-0.7-0.5-1.4 0-0.8 0.5-1.9 0.5-1 1.3-2 0.8-0.9 1.6-1.6 0.9-0.7 1.5-0.7 0.7 0 0.9 0.4 0.3 0.4 0 0.8-0.1 0.2-0.3 0.2-0.2 0-0.3 0-0.4-0.2-0.4-0.2-0.2 0-0.5 0.3-0.4 0.2-0.9 0.7-0.5 0.5-0.9 1.1-0.5 0.5-0.8 1.1-0.4 0.6-0.5 1.1-0.2 0.8 0.2 1.4 0.4 0.5 1.9 1.7l0.9 0.7 0.7-0.5q0.4-0.2 1.3-0.7 1-0.5 2.2-1.1 1.3-0.6 2.6-1.3 1.4-0.6 2.7-1.1 1.2-0.6 2.2-0.9 1-0.4 1.3-0.4zm-14.8 11.8q1.5-1 1.9-1.8 0.4-0.8-0.1-1.9l-0.3-0.6-1.3 1q-2.9 1.9-4 2.9-1.1 1.1-1.1 1.9 0 0.2 0 0.4 0 0.1 0.3 0.1 0.5 0 1.1-0.2 0.7-0.2 1.3-0.6 0.7-0.3 1.3-0.6 0.6-0.3 0.9-0.6z"></path><path fill-rule="evenodd" class="a" d="m156 20.8q0.2 0.2 0 0.6 0 0.2-0.1 0.2 0 0.1-0.3 0.1-0.2 0-0.7 0.1-0.5 0-1.3 0-1.5 0.1-3.2 0.2-1.7 0.1-4.6 0.4l-0.7 0.2-0.8 0.9q-0.8 1.1-2.2 2.8-1.4 1.6-3.1 3.6-2 2.1-2.8 3.1-0.9 1.1-0.8 1.3 0.1 0.3 0 0.5-0.1 0.3-0.4 0.3-0.2 0-0.3 0.3-0.2 0.3-0.7 1.5-1.6 3.7-2.3 5.9-0.7 2.3-0.4 2.8 0.1 0.2 0.3 0.2 0.5 0 1.8-0.7 1.4-0.7 3.1-1.7 1.8-1.1 3.7-2.3 2-1.2 3.8-2.4 1.8-1.2 3.1-2.2 1.4-0.9 1.9-1.4 1-0.8 1.4-0.8 0.2 0 0.4 0.3 0.1 0.2-0.2 0.6-0.2 0.4-1.1 1.1-0.6 0.4-2 1.4-1.4 1-3.2 2.2-1.7 1.1-3.7 2.4-2 1.2-3.8 2.3-1.7 1-3.1 1.6-1.4 0.7-2 0.7-1.5 0-1.6-1.7 0-0.8 0.4-2.1 0.4-1.4 1-3 0.6-1.7 1.4-3.4 0.8-1.8 1.5-3.4 0.8-1.6 1.4-3 0.7-1.3 1-2 2.5-4.9 2.3-4.9-0.1 0-0.6 0-0.5 0.1-1.1 0.2-1.9 0.3-3.5 0.5-1.7 0.2-2.4 0.4-0.3 0-0.7 0-0.3 0.1-0.5 0.1 0 0.1-0.2 0.1-0.3 0-0.5-0.1-0.4-0.3-0.3-0.6 0-0.1 0.1-0.2 0-0.2 0.1-0.2 0-0.1 0.4-0.1 0.4-0.1 0.9-0.1 0.6-0.1 2.1-0.3 1.5-0.2 3.1-0.4l3.9-0.6 1.3-2.4q0.3-0.6 0.9-1.7 0.6-1.2 1.4-2.6 0.8-1.3 1.7-2.8 1-1.4 1.9-2.7 0.9-1.2 1.8-1.9 0.8-0.8 1.4-0.8 0.3 0 0.7 0.2 0.3 0.2 0.4 0.5 0.2 0.2 0.1 1 0 0.7-0.4 1.9-0.4 1.2-1 2.7-0.6 1.4-1.4 3.1-0.9 1.6-1.8 3.1-0.3 0.7-0.6 1.1-0.2 0.4-0.2 0.5 0 0 0.6-0.1 0.5 0 1.3-0.1 2.2-0.3 3.8-0.4 1.7-0.1 2.8-0.1 1.2 0 1.4 0.2zm-12.4 1.9l-0.5 0.1q-0.2 0.1-0.6 0.1-0.5 0-0.9 0.1l-1 0.2-3.4 6.8 1.1-1.1q1.2-1.3 2.4-2.6 1.1-1.3 2.2-2.7zm1.7-2.6q0.9-1.3 1.8-2.8 0.8-1.5 1.4-2.9 0.7-1.4 1.2-2.6 0.4-1.2 0.6-2.1 0.3-1.4-0.1-1.4-0.2 0-0.8 0.7-0.6 0.7-1.4 1.7-0.8 1.1-1.7 2.3-0.9 1.3-1.6 2.5-0.4 0.5-0.9 1.6-0.6 1-1.1 2-0.6 1.1-1 1.9-0.4 0.8-0.4 0.8 0 0 0.1 0h0.2q0.1 0 0.6-0.1 0.5 0 1-0.1l1.3-0.1z"></path><path fill-rule="evenodd" class="a" d="m171.9 34.4q0.1 0.2 0.1 0.5-0.1 0.2-1 0.7-1 0.5-2.4 1.1-1.4 0.6-3 1.2-1.7 0.5-3.2 1.1-1.6 0.5-2.8 0.8-1.3 0.3-1.8 0.3-0.3 0-0.5-0.1-0.2 0-0.4-0.1-0.9-0.4-1-1.1-0.1-0.7 0.4-2.2l0.5-1.2-1.3 1q-0.6 0.5-1.5 1.2-1 0.7-2.1 1.4-1.1 0.7-2.1 1.2-1.1 0.5-1.8 0.5-0.4 0-0.8-0.2-0.5-0.2-0.7-0.6-0.2-0.5 0.1-1.3 0.2-0.8 0.9-1.7 0.7-1 1.7-2 1-1.1 2.2-1.9 0.8-0.7 1.3-0.9 0.5-0.2 1.1-0.2 1.7 0 3 1.6 0.1 0.2 0.1 0.2l0.3-0.1q0.2-0.2 0.4-0.2 0.2 0 0.5 0.1 0.2 0.2 0.2 0.7-0.1 0.5-0.6 1.8-0.2 0.7-0.4 1.3-0.2 0.6-0.2 0.9-0.1 0.4 0 0.5 0 0.1 0.2 0.2h1q0.8-0.2 2.5-0.7 1.7-0.6 3.7-1.3 1.9-0.6 3.6-1.3 1.8-0.6 2.5-1 0.6-0.3 0.9-0.3 0.2 0 0.4 0.1zm-16.2 0.3q0.2-0.2-0.1-0.7-0.2-0.4-0.7-0.7-0.5-0.3-0.9-0.3-0.7 0-1.8 0.8-1.1 0.7-2.1 1.7-1 1-1.8 2-0.7 1.1-0.7 1.6 0 0.5 0.2 0.5 0.6 0 1.8-0.6 1.2-0.7 2.5-1.5 1.3-0.8 2.3-1.6 1.1-0.8 1.3-1.2z"></path><path class="a" d="m197 34.6q0.3 0.5-1.2 1.5-1.5 0.9-5.2 2.5-2.8 1.1-4.6 1.7-1.8 0.5-3 0.5-0.8 0-1.7-0.3-1-0.3-1.4-1.2-0.3-0.4-0.2-1.5 0.1-1.1 0.4-2.3l0.4-1.2-0.4 0.4q-0.6 0.8-1.4 1.7-0.9 0.9-1.8 1.6-1 0.8-2.1 1.3-1 0.5-2.2 0.6-0.2 0-0.4 0-0.2 0-0.3 0-0.3 0-0.5-0.1-0.2-0.1-0.5-0.2-1.1-0.6-0.9-2 0.1-0.3 0.4-1.4 0.3-1 0.8-2.2 0.5-1.1 1-2 0.4-0.9 0.8-0.9 0.5 0 0.3 0.9 0 0.3 0 0.5-0.1 0.2-0.2 0.3-0.2 0.2-0.5 0.9-0.3 0.6-0.6 1.4-0.4 0.8-0.6 1.5-0.2 0.8-0.3 1.1-0.1 0.3 0 0.5 0.1 0.1 0.2 0.3 0.3 0.3 0.9 0.3 1.2 0 2.4-0.6 1.1-0.7 2.2-1.6 1-1 2-2 0.9-1.1 1.5-1.9 0.6-0.7 0.9-1.1 0.3-0.4 0.5-0.6 0.2-0.2 0.3-0.2 0.1-0.1 0.3-0.1 0.5 0.1 0.5 0.4 0.1 0.3-0.4 1.3-0.7 1.6-1.2 3.1-0.5 1.6-0.5 2.4 0 1 0.7 1.3 0.7 0.4 1.5 0.4 1.1 0 2.9-0.5 1.7-0.5 3.6-1.3 1.8-0.7 3.4-1.5 1.7-0.8 2.5-1.3 0.9-0.6 1.3-0.6 0.2 0 0.4 0.2z"></path><path class="a" d="m212.7 34.5q0.2 0.2 0 0.6 0 0.3-0.6 0.5-0.6 0.3-1.4 0.6-0.8 0.2-1.7 0.4-0.9 0.3-1.5 0.3-1.4 0-2-0.7-0.6-0.6-0.7-2.6-0.1-0.6-0.2-1.4-0.1-0.8-0.2-0.9-0.1-0.1-0.7 0.4-0.6 0.4-1.2 1.1-1.7 1.7-3.1 3.8-1.5 2.1-3 4.9 0 0.1-0.3 0.6-0.2 0.4-0.5 0.8-0.2 0.5-0.5 0.8-0.3 0.3-0.5 0.3-0.1 0-0.5-0.1-0.2-0.1-0.2-0.5-0.1-0.5 0.2-1.4 0.2-0.9 0.6-2.4 0.5-1.5 1.2-3.7 0.6-1.7 1.1-3.2 0.4-1.6 0.6-2.1 0.2-0.5 0.3-1 0.2-0.4 0.3-0.5 0.1-0.1 0.4-0.1 0.3 0 0.4 0.1 0.2 0.3 0.1 0.8 0 0.5-0.2 0.7-0.3 0.2-0.3 0.3 0 0.1-0.4 1.5-0.5 1.4-1.1 3.4-0.7 2-1.1 3.4-0.5 1.4-0.5 1.5 0 0.1 0.3-0.4 0.3-0.4 0.7-1.1 0.4-0.7 1.3-2.2 1-1.4 2.2-3 1.1-1.5 2.3-2.7 1.2-1.2 2-1.2 0.3 0 0.6 0.2 0.3 0.2 0.5 0.5 0.2 0.4 0.3 1.3 0.1 0.3 0.1 0.9 0.1 0.5 0.2 0.9 0.1 1.6 0.8 1.8 0.5 0 1.2-0.1 0.7 0 1.3-0.2 0.7-0.1 1.4-0.4 0.6-0.2 1-0.5 0.3-0.2 0.6-0.2 0.2 0 0.4 0.2z"></path><path fill-rule="evenodd" class="a" d="m234.1 34.4q0.1 0.2 0.1 0.5-0.1 0.2-1 0.7-1 0.5-2.4 1.1-1.4 0.6-3.1 1.2-1.6 0.5-3.1 1.1-1.6 0.5-2.8 0.8-1.3 0.3-1.8 0.3-0.3 0-0.5-0.1-0.2 0-0.4-0.1-0.9-0.4-1-1.1-0.1-0.7 0.4-2.2l0.4-1.2-1.3 1q-0.5 0.5-1.4 1.2-1 0.7-2.1 1.4-1.1 0.7-2.1 1.2-1.1 0.5-1.8 0.5-0.4 0-0.9-0.2-0.4-0.2-0.6-0.6-0.2-0.5 0.1-1.3 0.2-0.8 0.9-1.7 0.7-1 1.7-2 1-1.1 2.2-1.9 0.8-0.7 1.3-0.9 0.5-0.2 1.1-0.2 1.6 0 2.9 1.6 0.2 0.2 0.2 0.2l0.3-0.1q0.2-0.2 0.4-0.2 0.2 0 0.4 0.1 0.3 0.2 0.3 0.7-0.1 0.5-0.6 1.8-0.2 0.7-0.4 1.3-0.2 0.6-0.2 0.9-0.1 0.4 0 0.5 0 0.1 0.2 0.2h1q0.8-0.2 2.5-0.7 1.7-0.6 3.7-1.3 1.9-0.6 3.6-1.3 1.8-0.6 2.5-1 0.6-0.3 0.9-0.3 0.2 0 0.4 0.1zm-16.2 0.3q0.2-0.2-0.1-0.7-0.2-0.4-0.7-0.7-0.5-0.3-0.9-0.3-0.7 0-1.8 0.8-1.1 0.7-2.1 1.7-1 1-1.8 2-0.7 1.1-0.7 1.6 0 0.5 0.2 0.5 0.6 0 1.8-0.6 1.2-0.7 2.5-1.5 1.3-0.8 2.3-1.6 1.1-0.8 1.3-1.2z"></path><path class="a" d="m258.4 34.8q0 0.3-0.7 0.9-0.8 0.6-1.9 1.2-1.2 0.7-2.6 1.3-1.4 0.7-2.8 1.2-1.3 0.5-2.5 0.9-1.2 0.3-1.8 0.3-1.9 0-2.6-1.3-0.1-0.3-0.1-0.7-0.1-0.5-0.1-1.9 0-1 0-1.8 0-0.7-0.1-0.8 0-0.3-0.3-0.3h-0.3q-1 0.3-2.2 0.9-1.2 0.7-2.3 1.5-1.2 0.8-2.3 1.6-1.1 0.9-1.9 1.6-2 1.7-2.6 1.7-0.1 0-0.6-0.2-0.6-0.3-0.4-1.3 0.3-0.9 1.9-3.4 0.4-0.7 0.9-1.6 0.5-0.9 0.8-1.4 0.5-0.9 0.7-1.2 0.2-0.3 0.4-0.3 0.1 0 0.3 0.1 0.4 0.1 0.4 0.5 0 0.4-0.3 0.6-0.1 0.1-0.4 0.5-0.2 0.4-0.5 1-0.3 0.5-0.7 1.2-0.4 0.8-0.7 1.3-0.3 0.4-0.7 1-0.3 0.7-0.5 1.1l-0.5 0.9 0.5-0.4q0.2-0.1 0.8-0.6 0.5-0.5 1.1-1 0.7-0.6 1.9-1.5 1.1-0.9 2.4-1.7 1.3-0.9 2.6-1.4 1.3-0.6 2.3-0.6 1 0.1 1.3 0.9 0.1 0.3 0.1 0.8 0.1 0.5 0.1 1.9-0.1 2 0.1 2.6 0.2 0.6 1.1 0.6h0.6q0.9-0.2 2.4-0.7 1.5-0.6 3.1-1.3 1.6-0.7 3-1.4 1.4-0.8 2.1-1.3 0.8-0.4 1.1-0.4 0.4 0 0.4 0.4z"></path><path fill-rule="evenodd" class="a" d="m280.1 20.8q0.3 0.2 0.1 0.6-0.1 0.2-0.1 0.2-0.1 0.1-0.3 0.1-0.3 0-0.7 0.1-0.5 0-1.3 0-1.6 0.1-3.3 0.2-1.7 0.1-4.5 0.4l-0.8 0.2-0.7 0.9q-0.8 1.1-2.2 2.8-1.5 1.6-3.2 3.6-1.9 2.1-2.8 3.1-0.8 1.1-0.8 1.3 0.1 0.3 0 0.5-0.1 0.3-0.3 0.3-0.2 0-0.4 0.3-0.2 0.3-0.7 1.5-1.6 3.7-2.3 5.9-0.6 2.3-0.4 2.8 0.2 0.2 0.4 0.2 0.5 0 1.8-0.7 1.3-0.7 3.1-1.7 1.7-1.1 3.7-2.3 2-1.2 3.7-2.4 1.8-1.2 3.2-2.2 1.3-0.9 1.9-1.4 1-0.8 1.3-0.8 0.3 0 0.4 0.3 0.2 0.2-0.1 0.6-0.3 0.4-1.2 1.1-0.5 0.4-1.9 1.4-1.4 1-3.2 2.2-1.8 1.1-3.7 2.4-2 1.2-3.8 2.3-1.8 1-3.2 1.6-1.3 0.7-1.9 0.7-1.6 0-1.7-1.7 0-0.8 0.4-2.1 0.4-1.4 1.1-3 0.6-1.7 1.3-3.4 0.8-1.8 1.6-3.4 0.7-1.6 1.4-3 0.6-1.3 1-2 2.5-4.9 2.2-4.9-0.1 0-0.5 0-0.5 0.1-1.2 0.2-1.9 0.3-3.5 0.5-1.6 0.2-2.3 0.4-0.4 0-0.7 0-0.4 0.1-0.5 0.1-0.1 0.1-0.2 0.1-0.3 0-0.5-0.1-0.4-0.3-0.4-0.6 0.1-0.1 0.1-0.2 0.1-0.2 0.1-0.2 0.1-0.1 0.5-0.1 0.4-0.1 0.9-0.1 0.5-0.1 2-0.3 1.6-0.2 3.2-0.4l3.9-0.6 1.2-2.4q0.3-0.6 0.9-1.7 0.6-1.2 1.4-2.6 0.8-1.3 1.8-2.8 0.9-1.4 1.9-2.7 0.9-1.2 1.7-1.9 0.9-0.8 1.5-0.8 0.3 0 0.6 0.2 0.4 0.2 0.5 0.5 0.1 0.2 0.1 1 0 0.7-0.4 1.9-0.4 1.2-1 2.7-0.7 1.4-1.5 3.1-0.8 1.6-1.7 3.1-0.4 0.7-0.6 1.1-0.3 0.4-0.3 0.5 0.1 0 0.6-0.1 0.5 0 1.4-0.1 2.2-0.3 3.8-0.4 1.7-0.1 2.7-0.1 1.3 0 1.4 0.2zm-12.4 1.9l-0.4 0.1q-0.3 0.1-0.7 0.1-0.4 0-0.8 0.1l-1 0.2-3.4 6.8 1-1.1q1.3-1.3 2.4-2.6 1.2-1.3 2.2-2.7zm1.8-2.6q0.9-1.3 1.7-2.8 0.8-1.5 1.5-2.9 0.6-1.4 1.1-2.6 0.5-1.2 0.7-2.1 0.3-1.4-0.2-1.4-0.1 0-0.8 0.7-0.6 0.7-1.4 1.7-0.8 1.1-1.7 2.3-0.8 1.3-1.6 2.5-0.3 0.5-0.9 1.6-0.5 1-1.1 2-0.6 1.1-1 1.9-0.4 0.8-0.4 0.8 0.1 0 0.1 0h0.3q0.1 0 0.6-0.1 0.5 0 1-0.1l1.3-0.1z"></path><path fill-rule="evenodd" class="a" d="m10.8 44.7q5.2 0 9.8 1.2 4.6 1.1 8.1 3.7 3.5 2.5 5.5 6.5 2 4.1 2 9.9 0 5.8-2 9.9-2 4-5.5 6.6-3.5 2.5-8.1 3.6-4.6 1.2-9.8 1.2h-10.6v-42.6zm0 41.6q4.8 0 8.4-1.1 3.6-1.1 6-3.5 2.4-2.4 3.5-6.3 1.2-3.9 1.2-9.4 0-5.6-1.2-9.4-1.1-3.8-3.5-6.2-2.4-2.4-6-3.5-3.6-1.1-8.4-1.1h-4.3v40.5z"></path><path class="a" d="m75.6 44.7v1.1h-17.9v17.5h11.7v1.1h-11.7v21.9h20.6v1h-26.9v-42.6z"></path><path class="a" d="m99.8 86.3h20.5v1h-26.8v-42.6h6.3z"></path><path class="a" d="m193.9 70.6v14q-3.7 2-7 2.5-3.3 0.6-6 0.6-4.4 0-8.7-1.3-4.3-1.3-7.6-3.9-3.3-2.7-5.4-6.8-2.1-4.1-2.1-9.7 0-5.6 2.1-9.7 2.1-4.1 5.4-6.7 3.3-2.7 7.6-3.9 4.3-1.3 8.7-1.3 2.7 0 5 0.5 2.2 0.5 4.7 1.5l-0.4 0.8q-2.2-1-4.6-1.4-2.4-0.4-4.7-0.4-4.3 0-7.6 1.8-3.2 1.8-5.4 4.7-2.2 2.9-3.3 6.5-1.2 3.7-1.2 7.6 0 3.8 1.1 7.5 1.1 3.7 3.3 6.6 2.2 2.9 5.5 4.7 3.3 1.8 7.6 1.8 2 0 3.5-0.2 1.4-0.3 3.1-0.9v-14h-4.2v-0.9z"></path><path fill-rule="evenodd" class="a" d="m228.8 87.8q-5.8 0-10-1.8-4.3-1.8-7.2-4.8-2.8-3-4.2-6.9-1.4-3.8-1.4-8 0-4.3 1.4-8.2 1.4-3.9 4.2-6.9 2.9-3 7.2-4.8 4.2-1.8 10-1.8 5.7 0 10 1.8 4.2 1.8 7.1 4.8 2.9 3 4.3 6.9 1.4 3.9 1.4 8.2 0 4.2-1.4 8-1.4 3.9-4.3 6.9-2.9 3-7.1 4.8-4.3 1.8-10 1.8zm0-42.2q-4.2 0-7.3 1.7-3.1 1.8-5.1 4.6-2.1 2.9-3.1 6.7-1 3.7-1 7.7 0 3.9 1 7.6 1 3.7 3.1 6.6 2 2.8 5.1 4.6 3.1 1.7 7.3 1.7 4.2 0 7.2-1.7 3.1-1.8 5.2-4.6 2-2.9 3-6.6 1-3.7 1-7.7 0-4-1-7.7-1-3.7-3-6.6-2.1-2.8-5.2-4.6-3-1.7-7.2-1.7z"></path><path class="a" d="m273.1 86.3h20.5v1h-26.8v-42.6h6.3z"></path><path class="a" d="m308.8 44.7h24.3v1.1h-17.9v17.5h11.7v1.1h-11.7v22.9h-6.4z"></path></svg>