<svg xmlns="http://www.w3.org/2000/svg" viewBox="0 0 32 32" width="32" height="32" role="img" aria-label="RestaurantOS">
  <rect width="32" height="32" rx="7" fill="#e11d48"/>
  <g fill="#fff">
    <!-- Tenedor -->
    <rect x="9.5"  y="6" width="1.7" height="7" rx="0.85"/>
    <rect x="12.15" y="6" width="1.7" height="7" rx="0.85"/>
    <rect x="14.8" y="6" width="1.7" height="7" rx="0.85"/>
    <path d="M9.5 12.2h7.5c0 2.05-1.25 3.35-2.75 3.6L13.6 25a1.1 1.1 0 0 1-2.2 0l-.65-9.2c-1.5-.25-2.75-1.55-2.75-3.6Z"/>
    <!-- Cuchillo -->
    <path d="M22.3 6c1.5 0 2.5 3 2.5 6.4 0 2.6-.95 4.35-2.3 4.75V25a1.1 1.1 0 0 1-2.2 0V12.4C20.3 8.7 20.9 6 22.3 6Z"/>
  </g>
</svg>
